PathFileType	4	(X/Y/Z)	7_coords_data.trc
DataRate	CameraRate	NumFrames	NumMarkers	Units	OrigDataRate	OrigDataStartFrame	OrigNumFrames
30.0	30.0	7	21	m	30.0	40	49
Frame#	Time	THUMB_TIP	THUMB_IP	THUMB_MCP	THUMB_CMC	INDEX_TIP	INDEX_DIP	INDEX_PIP	INDEX_MCP	MIDDLE_TIP	MIDDLE_DIP	MIDDLE_PIP	MIDDLE_MCP	RING_TIP	RING_DIP	RING_PIP	RING_MCP	PINKY_TIP	PINKY_DIP	PINKY_PIP	PINKY_MCP	WRIST
X1	Y1	Z1	X2	Y2	Z2	X3	Y3	Z3	X4	Y4	Z4	X5	Y5	Z5	X6	Y6	Z6	X7	Y7	Z7	X8	Y8	Z8	X9	Y9	Z9	X10	Y10	Z10	X11	Y11	Z11	X12	Y12	Z12	X13	Y13	Z13	X14	Y14	Z14	X15	Y15	Z15	X16	Y16	Z16	X17	Y17	Z17	X18	Y18	Z18	X19	Y19	Z19	X20	Y20	Z20	X21	Y21	Z21
38	1.299999999999994	0.48738153144547236	-0.04274630665639845	-0.17074359354038066	0.48315937648371055	-0.0415680503955822	-0.14818732789948352	0.468325542723499	-0.041072407292773394	-0.12082802027138284	0.4705685404723825	-0.034888419637820633	-0.07670753457843171	0.5518515564753841	0.023538056497474646	-0.18125442988862123	0.536647874767936	0.025303620875108845	-0.17157296073528305	0.5172600343017966	0.02203142649158607	-0.15590725874092703	0.49715515019117096	-0.00015116780813750896	-0.12561927037867038	0.5710249061970452	0.058434852651845004	-0.15606995213038144	0.5565817697479092	0.052664399612943114	-0.14679106851016804	0.5344760865377074	0.04041443066346695	-0.13227602181554526	0.508652760779661	0.012400190093088903	-0.10894136747786981	0.5775721054170619	0.05907654853847577	-0.13169968039299101	0.5636964042637016	0.052386493722264116	-0.12233442097006425	0.5454353524958608	0.040883959025386996	-0.10990841345037466	0.5210989700153941	0.014480838177335142	-0.0913251809208172	0.5840439539699152	0.05319233505668086	-0.08164204032526978	0.5693893496966496	0.045006760152107916	-0.07828958792805218	0.5523993548536209	0.03315895955238757	-0.07485713761040347	0.526305854273	0.008561693247257973	-0.07098581112408475	0.4622830810018609	-0.023011742144276925	-0.051989820119430985
39	1.3333333333333275	0.4858003414149419	-0.0434106333028933	-0.1709834733461934	0.4820074694505041	-0.04207851694560816	-0.14835960125779896	0.46763062752197615	-0.04128150743404191	-0.1207644713976117	0.4704353773449611	-0.03502336022575536	-0.07668659744763673	0.5500312109860412	0.02477814916901988	-0.18328863943452284	0.535260444513327	0.025486949140975268	-0.17283292040576648	0.5165505457895452	0.021456927766039247	-0.1565323544504572	0.49700974370134765	-0.0006931368053795239	-0.12585389641828304	0.56858920760696	0.06097037466173405	-0.1572880914672682	0.5549923276076534	0.053654436905940406	-0.14782226297538187	0.5340005921224075	0.039917158933507224	-0.13298839007497015	0.5087792887175736	0.011657330748390593	-0.10929417376573097	0.5757240589144568	0.060716115503624435	-0.13284123971507134	0.562657545891696	0.052716529637875875	-0.12334003645429742	0.5453431543428099	0.0401116903633727	-0.11063138384452759	0.5213627761666845	0.013569649904135006	-0.09178510079480662	0.5836508645670289	0.05354531336277901	-0.08211857080354912	0.5696140976165053	0.04431535313768464	-0.07883573547111711	0.5531029422995971	0.03181390586704569	-0.07538499855846004	0.5265484403606625	0.007708006416091706	-0.07155779469197798	0.462283081001861	-0.023011742144276925	-0.051989820119430985
41	1.3666666666666676	0.4855393837001395	-0.04301421165252173	-0.17108780958684427	0.4818228218404389	-0.041775330566694024	-0.1484459823284669	0.4675415098636526	-0.04109622799195212	-0.12079814429518343	0.47040443571809776	-0.035019599155290515	-0.07669861779507903	0.5493526160028447	0.025731161303278682	-0.18385292810851206	0.5348042194733703	0.025970029513612602	-0.17306927842951791	0.5163451388433627	0.021599572327268834	-0.15657166407843026	0.4968121386307176	-0.0005863766323684905	-0.12591417452933035	0.5677448221773078	0.06189328570777086	-0.1577117761834495	0.5545980601578945	0.05394314604420525	-0.1481223065560554	0.5339474444847299	0.0398391671716779	-0.1331543607289703	0.5086543276635478	0.01174098230450149	-0.10934473726197658	0.5753195251669807	0.06102224295046732	-0.13320423102999346	0.5625362739504984	0.05268257950839084	-0.12361056113734026	0.5454065211019404	0.03997597854418644	-0.1107538960066074	0.5213146843377183	0.013575453547397198	-0.09185107835367579	0.5842830561433339	0.05271259746613777	-0.08254098148001321	0.5702932019220597	0.04344203493376708	-0.07917339344094065	0.5535800746022809	0.031244620799485645	-0.07560877808585731	0.5265160886173595	0.007740111699877206	-0.07161351018565121	0.4622830810018609	-0.023011742144276925	-0.051989820119430985
42	1.400000000000001	0.48617638401317886	-0.04229695214528417	-0.1710401584158363	0.482246121129305	-0.041205871455401444	-0.14842683100495302	0.4677999709134545	-0.04077997433714764	-0.12085968832411376	0.47045996658555456	-0.034949552538312334	-0.07671424003471405	0.5492508438187348	0.026622935059624986	-0.18384466954779577	0.5348520894592564	0.026562937778022433	-0.1728595763200802	0.5164672704672506	0.02204974839913343	-0.15631752731575588	0.4966564592923556	-0.00015993017008364419	-0.12585610856277063	0.5675363057843741	0.06252476159878528	-0.15768698457796015	0.5547391337850721	0.054128185082219504	-0.14800556466031706	0.534184267111512	0.0399517442450914	-0.13297441263448834	0.5084901617266051	0.012183259979860361	-0.10920737346085707	0.5754637945173806	0.061061957654668264	-0.13317745441624634	0.5628462318954326	0.052576280714797696	-0.12349291001016466	0.5456819664545987	0.04004245319494004	-0.11051326677242296	0.5211847387710766	0.013964238837440579	-0.09168420928815146	0.5853181048067102	0.05149780644920576	-0.08266784458171528	0.5712486519289666	0.04238493540183064	-0.07920286593894399	0.5541575513967191	0.030755076166865458	-0.07553507699033957	0.5264141212924452	0.008079584642130322	-0.07141104726676317	0.4622830810018609	-0.023011742144276925	-0.051989820119430985
43	1.4333333333333345	0.4877110510255659	-0.0414310204574313	-0.17079503981338134	0.48326621631737066	-0.04049987571274005	-0.14827002230215047	0.46838520564002917	-0.040400458154933316	-0.12093203339714786	0.4705928500412263	-0.03482787021353251	-0.07672838456774445	0.5496868884065961	0.027504110978688656	-0.1832868221621946	0.5353391188356993	0.0272859305700075	-0.17223721105366607	0.516864588403041	0.022763252872491035	-0.15579802175683116	0.49658731379136734	0.0005088174811358481	-0.12567812245861343	0.5679416618425802	0.06293191034376311	-0.15714330735966986	0.5553383366850719	0.05428604456358155	-0.14742707352730416	0.5346416242016435	0.04027223018726955	-0.13243812262990762	0.5083354009220052	0.012892673419921508	-0.10889050260185829	0.5761040896307542	0.06090264129683831	-0.13268342003271544	0.5635076934933361	0.052453063191440386	-0.12293993840703266	0.5461111471170889	0.04029965625000087	-0.10990786823783655	0.5210216530688528	0.014630710285064241	-0.09129756637427977	0.5866323038244347	0.0499528330017045	-0.08238017973447764	0.5723605627952737	0.041189048629072245	-0.07884273836159628	0.5547837618046496	0.030323061485771463	-0.07512811733952462	0.52628375595967	0.008611061738036718	-0.07097815531674578	0.4622830810018609	-0.023011742144276925	-0.051989820119430985
44	1.466666666666668	0.4901375227565019	-0.04058994061404808	-0.1702852945418687	0.4848683365141665	-0.03978795334851948	-0.14793372876294575	0.4692778015951753	-0.04002499156171113	-0.12099492712246429	0.4707940800607321	-0.03466879187640437	-0.07673544198598758	0.5506104189180039	0.028420460455988117	-0.18218545244639844	0.5361910435079591	0.02815885091106174	-0.17123040003985085	0.517482135708752	0.023694987267714906	-0.15504211651952748	0.4966497087008934	0.001341305275163407	-0.1253780139654619	0.568938882048657	0.06316746759614233	-0.15598790066319218	0.5563023095930418	0.05450243040731262	-0.14633211653707456	0.5352438022255688	0.040825193796241055	-0.13153745479241646	0.5082388976029524	0.01377667567772245	-0.1084017526220572	0.5771752628382716	0.06062525847293809	-0.131621875406778	0.5644258555925054	0.05238870327902401	-0.12189501705378364	0.54663201226961	0.0407407382067394	-0.10893801012798915	0.5208739180022626	0.015467446855324862	-0.09070336842651983	0.5880801439899479	0.048198734201209015	-0.08154045827794754	0.5734998954274118	0.039957085265783676	-0.07800611609306185	0.5554135048362455	0.029939777149667224	-0.07435262016579391	0.5261667706397357	0.009217041794268188	-0.07034260405251003	0.4622830810018609	-0.023011742144276925	-0.051989820119430985
45	1.5000000000000013	0.4934347875194731	-0.039950089743639006	-0.16942353580127867	0.48703016861017456	-0.039202802424396443	-0.1473685495557796	0.47045914568712255	-0.03972135869396087	-0.12102557518539042	0.471054754786147	-0.034486477137057325	-0.07672962429948726	0.5519479729172542	0.02942643420494384	-0.18055497335837495	0.5373207660096415	0.029207236050717733	-0.169878046354266	0.518263687603735	0.02480001509926566	-0.15408519990037384	0.4968892237778305	0.00225728953071902	-0.12495456458124116	0.5704662245599531	0.06330407411451178	-0.15413028546559293	0.5575078990356384	0.05489211742034594	-0.14467931809810236	0.5359123818901865	0.04164241774396549	-0.13027485185647375	0.5082512448328325	0.014741377857482196	-0.10775056561428364	0.5785771298884368	0.06035957915290546	-0.12989514663766588	0.5654864552626755	0.05249714879505307	-0.12031305778865331	0.5471845810986407	0.041364554850406465	-0.10761318640554657	0.5207926945244649	0.016364288998816146	-0.08991641086858326	0.5894973870805779	0.04646687770562852	-0.08001755141422862	0.5745439017768994	0.03886210126610312	-0.07661745544830167	0.5560141619456811	0.029608131404519344	-0.07317873437961142	0.5261085157779848	0.009777377333157977	-0.0695349765317651	0.4622830810018609	-0.023011742144276925	-0.051989820119430985
